<?xml version="1.0" encoding="UTF-8" standalone="no"?>
<!-- Created with Inkscape (http://www.inkscape.org/) -->

<svg
   xmlns:dc="http://purl.org/dc/elements/1.1/"
   xmlns:cc="http://creativecommons.org/ns#"
   xmlns:rdf="http://www.w3.org/1999/02/22-rdf-syntax-ns#"
   xmlns:svg="http://www.w3.org/2000/svg"
   xmlns="http://www.w3.org/2000/svg"
   xmlns:sodipodi="http://sodipodi.sourceforge.net/DTD/sodipodi-0.dtd"
   xmlns:inkscape="http://www.inkscape.org/namespaces/inkscape"
   sodipodi:docname="Logo3D.svg"
   inkscape:version="0.48.5 r10040"
   version="1.1"
   id="svg2"
   height="297mm"
   width="210mm">
  <sodipodi:namedview
     id="base"
     pagecolor="#ffffff"
     bordercolor="#666666"
     borderopacity="1.0"
     inkscape:pageopacity="0.0"
     inkscape:pageshadow="2"
     inkscape:zoom="0.7"
     inkscape:cx="292.50594"
     inkscape:cy="459.29597"
     inkscape:document-units="px"
     inkscape:current-layer="layer1"
     showgrid="false"
     inkscape:window-width="1596"
     inkscape:window-height="817"
     inkscape:window-x="156"
     inkscape:window-y="149"
     inkscape:window-maximized="0"
     showguides="true"
     inkscape:guide-bbox="true"
     inkscape:snap-global="true" />
  <defs
     id="defs4" />
  <metadata
     id="metadata7">
    <rdf:RDF>
      <cc:Work
         rdf:about="">
        <dc:format>image/svg+xml</dc:format>
        <dc:type
           rdf:resource="http://purl.org/dc/dcmitype/StillImage" />
        <dc:title></dc:title>
      </cc:Work>
    </rdf:RDF>
  </metadata>
  <g
     inkscape:label="Ebene 1"
     inkscape:groupmode="layer"
     id="layer1">
    <path
       style="fill:none;stroke:#ff7000;stroke-width:39.70000076000000178;stroke-linecap:square;stroke-linejoin:round;stroke-miterlimit:4;stroke-opacity:1;stroke-dasharray:none;stroke-dashoffset:0"
       d="M411.447949975 740.592194077C411.226640938 730.752279637 410.872211552 722.480260176 410.320611858 717.928256711C408.9634338 706.728334695 402.874110544 698.261056832 393.542308611 694.731989988C383.848202719 691.065911746 366.949532293 687.232814253 346.248755997 683.187599929C339.861233556 681.939362748 333.085205053 680.677802293 326.022413151 679.376011465C325.899984615 679.351032538 325.781117676 679.330674131 325.658650427 679.30568744C318.402479633 677.837548352 311.076641684 676.368694676 303.818593728 674.97703507C277.612383655 669.952217053 252.571190149 665.821318502 236.393707373 665.091039183C219.350071441 664.321664739 207.350618426 672.567279367 204.573548485 687.843594995C202.290061228 700.40479384 201.63055089 734.927317225 201.550807513 766.258707006C201.550981666 766.333260812 201.550624195 766.409602091 201.550807513 766.484156154C201.550605863 766.566810781 201.550999998 766.652040361 201.550807513 766.734655207C201.630541726 798.070584456 202.290088666 832.633235992 204.573548485 845.331859956C207.350618426 860.775468869 219.350071441 869.743941746 236.393707373 870.001291836C252.571190149 870.245559178 277.612383655 867.623137011 303.818593728 864.177034031C311.076641684 863.222626189 318.402479633 862.195034441 325.658650427 861.16404706C325.781185082 861.149050631 325.900051993 861.130610059 326.022413151 861.11563644C333.085205053 860.23934713 339.861233556 859.385929449 346.248755997 858.522501746C366.949532293 855.724321507 383.848202719 852.909215692 393.542308611 849.827119435C402.874110544 846.86020905 408.963438235 838.759757218 410.320611858 827.641593359C410.872207154 823.122863536 411.226636546 814.87215073 411.447945587 805.045534784"
       id="path2991"
       inkscape:connector-curvature="0"
       sodipodi:nodetypes="csssccssscccsssccsssc" />
    <g
       id="g3877"
       transform="matrix(0.77555981,0,0,0.77555981,64.796829,-63.481587)"
       style="stroke:#ff7000;stroke-opacity:1">
      <path
         inkscape:connector-curvature="0"
         id="path3807"
         d="m 299.67187,989.52191 c 0,0 63.05764,13.53879 63.05764,13.53879"
         style="fill:none;stroke:#ff7000;stroke-width:2.70772123000000020;stroke-linecap:round;stroke-linejoin:miter;stroke-miterlimit:4;stroke-opacity:1;stroke-dasharray:none" />
      <path
         style="fill:none;stroke:#ff7000;stroke-width:2.70772123000000020;stroke-linecap:round;stroke-linejoin:miter;stroke-miterlimit:4;stroke-opacity:1;stroke-dasharray:none"
         d="m 299.67187,994.57699 c 0,0 63.05764,12.81131 63.05764,12.81131"
         id="path3809"
         inkscape:connector-curvature="0" />
      <path
         inkscape:connector-curvature="0"
         id="path3811"
         d="m 299.67187,999.63206 c 0,0 63.05764,12.08384 63.05764,12.08384"
         style="fill:none;stroke:#ff7000;stroke-width:2.70772123000000020;stroke-linecap:round;stroke-linejoin:miter;stroke-miterlimit:4;stroke-opacity:1;stroke-dasharray:none" />
      <path
         style="fill:none;stroke:#ff7000;stroke-width:2.70772123000000020;stroke-linecap:round;stroke-linejoin:miter;stroke-miterlimit:4;stroke-opacity:1;stroke-dasharray:none"
         d="m 299.67187,1151.2841 c 0,0 63.05764,-9.7401 63.05764,-9.7401"
         id="path3813"
         inkscape:connector-curvature="0" />
      <path
         style="fill:none;stroke:#ff7000;stroke-width:2.70772123000000020;stroke-linecap:round;stroke-linejoin:miter;stroke-miterlimit:4;stroke-opacity:1;stroke-dasharray:none"
         d="m 299.67187,1004.6871 c 0,0 63.05764,11.3564 63.05764,11.3564"
         id="path3815"
         inkscape:connector-curvature="0" />
      <path
         inkscape:connector-curvature="0"
         id="path3817"
         d="m 299.67187,1009.7422 c 0,0 63.05764,10.6289 63.05764,10.6289"
         style="fill:none;stroke:#ff7000;stroke-width:2.70772123000000020;stroke-linecap:round;stroke-linejoin:miter;stroke-miterlimit:4;stroke-opacity:1;stroke-dasharray:none" />
      <path
         style="fill:none;stroke:#ff7000;stroke-width:2.70772123000000020;stroke-linecap:round;stroke-linejoin:miter;stroke-miterlimit:4;stroke-opacity:1;stroke-dasharray:none"
         d="m 299.67187,1014.7973 c 0,0 63.05764,9.9014 63.05764,9.9014"
         id="path3819"
         inkscape:connector-curvature="0" />
      <path
         style="fill:none;stroke:#ff7000;stroke-width:2.70772123000000020;stroke-linecap:round;stroke-linejoin:miter;stroke-miterlimit:4;stroke-opacity:1;stroke-dasharray:none"
         d="m 299.67187,1019.8523 c 0,0 63.05764,9.174 63.05764,9.174"
         id="path3821"
         inkscape:connector-curvature="0" />
      <path
         inkscape:connector-curvature="0"
         id="path3823"
         d="m 299.67187,1024.9074 c 0,0 63.05764,8.4465 63.05764,8.4465"
         style="fill:none;stroke:#ff7000;stroke-width:2.70772123000000020;stroke-linecap:round;stroke-linejoin:miter;stroke-miterlimit:4;stroke-opacity:1;stroke-dasharray:none" />
      <path
         style="fill:none;stroke:#ff7000;stroke-width:2.70772123000000020;stroke-linecap:round;stroke-linejoin:miter;stroke-miterlimit:4;stroke-opacity:1;stroke-dasharray:none"
         d="m 299.67187,1029.9625 c 0,0 63.05764,7.719 63.05764,7.719"
         id="path3825"
         inkscape:connector-curvature="0" />
      <path
         inkscape:connector-curvature="0"
         id="path3827"
         d="m 299.67187,1035.0175 c 0,0 63.05764,6.9916 63.05764,6.9916"
         style="fill:none;stroke:#ff7000;stroke-width:2.70772123000000020;stroke-linecap:round;stroke-linejoin:miter;stroke-miterlimit:4;stroke-opacity:1;stroke-dasharray:none" />
      <path
         sodipodi:nodetypes="cc"
         style="fill:none;stroke:#ff7000;stroke-width:2.70772123000000020;stroke-linecap:round;stroke-linejoin:miter;stroke-miterlimit:4;stroke-opacity:1;stroke-dasharray:none"
         d="m 231.59026,1033.3094 c 0,0 169.86715,16.8745 169.86715,16.8745"
         id="path3829"
         inkscape:connector-curvature="0" />
      <path
         inkscape:connector-curvature="0"
         id="path3831"
         d="m 231.59026,1039.1499 c 0,0 169.86715,14.9148 169.86715,14.9148"
         style="fill:none;stroke:#ff7000;stroke-width:2.70772123000000020;stroke-linecap:round;stroke-linejoin:miter;stroke-miterlimit:4;stroke-opacity:1;stroke-dasharray:none" />
      <path
         inkscape:connector-curvature="0"
         id="path3833"
         d="m 231.59026,1044.9904 c 0,0 169.86715,12.9552 169.86715,12.9552"
         style="fill:none;stroke:#ff7000;stroke-width:2.70772123000000020;stroke-linecap:round;stroke-linejoin:miter;stroke-miterlimit:4;stroke-opacity:1;stroke-dasharray:none" />
      <path
         style="fill:none;stroke:#ff7000;stroke-width:2.70772123000000020;stroke-linecap:round;stroke-linejoin:miter;stroke-miterlimit:4;stroke-opacity:1;stroke-dasharray:none"
         d="m 231.59026,1050.8309 c 0,0 169.86715,10.9955 169.86715,10.9955"
         id="path3835"
         inkscape:connector-curvature="0" />
      <path
         inkscape:connector-curvature="0"
         id="path3837"
         d="m 231.59026,1056.6714 c 0,0 169.86715,9.0358 169.86715,9.0358"
         style="fill:none;stroke:#ff7000;stroke-width:2.70772123000000020;stroke-linecap:round;stroke-linejoin:miter;stroke-miterlimit:4;stroke-opacity:1;stroke-dasharray:none" />
      <path
         style="fill:none;stroke:#ff7000;stroke-width:2.70772123000000020;stroke-linecap:round;stroke-linejoin:miter;stroke-miterlimit:4;stroke-opacity:1;stroke-dasharray:none"
         d="m 231.59026,1062.5119 c 0,0 169.86715,7.0761 169.86715,7.0761"
         id="path3839"
         inkscape:connector-curvature="0" />
      <path
         inkscape:connector-curvature="0"
         id="path3841"
         d="m 231.59026,1068.3524 c 0,0 169.86715,5.1164 169.86715,5.1164"
         style="fill:none;stroke:#ff7000;stroke-width:2.70772123000000020;stroke-linecap:round;stroke-linejoin:miter;stroke-miterlimit:4;stroke-opacity:1;stroke-dasharray:none" />
      <path
         style="fill:none;stroke:#ff7000;stroke-width:2.70772123000000020;stroke-linecap:round;stroke-linejoin:miter;stroke-miterlimit:4;stroke-opacity:1;stroke-dasharray:none"
         d="m 231.59026,1074.1929 c 0,0 169.86715,3.1568 169.86715,3.1568"
         id="path3845"
         inkscape:connector-curvature="0" />
      <path
         style="fill:none;stroke:#ff7000;stroke-width:2.70772123000000020;stroke-linecap:round;stroke-linejoin:miter;stroke-miterlimit:4;stroke-opacity:1;stroke-dasharray:none"
         d="m 231.59026,1080.0333 c 0,0 169.86715,1.1972 169.86715,1.1972"
         id="path3849"
         inkscape:connector-curvature="0" />
      <path
         inkscape:connector-curvature="0"
         id="path3851"
         d="m 231.59026,1085.8739 c 0,0 169.86715,-0.7626 169.86715,-0.7626"
         style="fill:none;stroke:#ff7000;stroke-width:2.70772123000000020;stroke-linecap:round;stroke-linejoin:miter;stroke-miterlimit:4;stroke-opacity:1;stroke-dasharray:none" />
      <path
         style="fill:none;stroke:#ff7000;stroke-width:2.70772123000000020;stroke-linecap:round;stroke-linejoin:miter;stroke-miterlimit:4;stroke-opacity:1;stroke-dasharray:none"
         d="m 231.59026,1091.7143 c 0,0 169.86715,-2.7222 169.86715,-2.7222"
         id="path3853"
         inkscape:connector-curvature="0" />
      <path
         inkscape:connector-curvature="0"
         id="path3855"
         d="m 231.59026,1097.5548 c 0,0 169.86715,-4.6819 169.86715,-4.6819"
         style="fill:none;stroke:#ff7000;stroke-width:2.70772123000000020;stroke-linecap:round;stroke-linejoin:miter;stroke-miterlimit:4;stroke-opacity:1;stroke-dasharray:none" />
      <path
         sodipodi:nodetypes="cc"
         inkscape:connector-curvature="0"
         id="path3857"
         d="m 231.59026,1103.3953 c 0,0 169.86715,-6.6415 169.86715,-6.6415"
         style="fill:none;stroke:#ff7000;stroke-width:2.70772123000000020;stroke-linecap:round;stroke-linejoin:miter;stroke-miterlimit:4;stroke-opacity:1;stroke-dasharray:none" />
      <path
         style="fill:none;stroke:#ff7000;stroke-width:2.70772123000000020;stroke-linecap:round;stroke-linejoin:miter;stroke-miterlimit:4;stroke-opacity:1;stroke-dasharray:none"
         d="m 299.67187,1105.7885 c 0,0 63.05764,-3.1929 63.05764,-3.1929"
         id="path3859"
         inkscape:connector-curvature="0" />
      <path
         inkscape:connector-curvature="0"
         id="path3861"
         d="m 299.67187,1110.8436 c 0,0 63.05764,-3.9204 63.05764,-3.9204"
         style="fill:none;stroke:#ff7000;stroke-width:2.70772123000000020;stroke-linecap:round;stroke-linejoin:miter;stroke-miterlimit:4;stroke-opacity:1;stroke-dasharray:none" />
      <path
         style="fill:none;stroke:#ff7000;stroke-width:2.70772123000000020;stroke-linecap:round;stroke-linejoin:miter;stroke-miterlimit:4;stroke-opacity:1;stroke-dasharray:none"
         d="m 299.67187,1115.8986 c 0,0 63.05764,-4.6478 63.05764,-4.6478"
         id="path3863"
         inkscape:connector-curvature="0" />
      <path
         inkscape:connector-curvature="0"
         id="path3865"
         d="m 299.67187,1120.9537 c 0,0 63.05764,-5.3753 63.05764,-5.3753"
         style="fill:none;stroke:#ff7000;stroke-width:2.70772123000000020;stroke-linecap:round;stroke-linejoin:miter;stroke-miterlimit:4;stroke-opacity:1;stroke-dasharray:none" />
      <path
         style="fill:none;stroke:#ff7000;stroke-width:2.70772123000000020;stroke-linecap:round;stroke-linejoin:miter;stroke-miterlimit:4;stroke-opacity:1;stroke-dasharray:none"
         d="m 299.67187,1126.0088 c 0,0 63.05764,-6.1028 63.05764,-6.1028"
         id="path3867"
         inkscape:connector-curvature="0" />
      <path
         style="fill:none;stroke:#ff7000;stroke-width:2.70772123000000020;stroke-linecap:round;stroke-linejoin:miter;stroke-miterlimit:4;stroke-opacity:1;stroke-dasharray:none"
         d="m 299.67187,1131.0639 c 0,0 63.05764,-6.8303 63.05764,-6.8303"
         id="path3869"
         inkscape:connector-curvature="0" />
      <path
         inkscape:connector-curvature="0"
         id="path3871"
         d="m 299.67187,1136.1189 c 0,0 63.05764,-7.5577 63.05764,-7.5577"
         style="fill:none;stroke:#ff7000;stroke-width:2.70772123000000020;stroke-linecap:round;stroke-linejoin:miter;stroke-miterlimit:4;stroke-opacity:1;stroke-dasharray:none" />
      <path
         style="fill:none;stroke:#ff7000;stroke-width:2.70772123000000020;stroke-linecap:round;stroke-linejoin:miter;stroke-miterlimit:4;stroke-opacity:1;stroke-dasharray:none"
         d="m 299.67187,1146.2291 c 0,0 63.05764,-9.0127 63.05764,-9.0127"
         id="path3873"
         inkscape:connector-curvature="0" />
      <path
         inkscape:connector-curvature="0"
         id="path3875"
         d="m 299.67187,1141.174 c 0,0 63.05764,-8.2852 63.05764,-8.2852"
         style="fill:none;stroke:#ff7000;stroke-width:2.70772123000000020;stroke-linecap:round;stroke-linejoin:miter;stroke-miterlimit:4;stroke-opacity:1;stroke-dasharray:none" />
    </g>
  </g>
</svg>
